<?xml version="1.0" encoding="utf-8"?>
<!-- Generator: Adobe Illustrator 25.3.0, SVG Export Plug-In . SVG Version: 6.00 Build 0)  -->
<svg version="1.1" id="Ebene_1" xmlns="http://www.w3.org/2000/svg" xmlns:xlink="http://www.w3.org/1999/xlink" x="0px" y="0px"
	 viewBox="0 0 297.6 70.9" style="enable-background:new 0 0 297.6 70.9;" xml:space="preserve">
<style type="text/css">
	.st0{fill:#E53323;}
</style>
<g id="Logo_Inf_Pl_of_EN_RZ">
	<g>
		<path class="st0" d="M6,14.7h2.7v16.9H6V14.7z"/>
		<path class="st0" d="M12.1,20.2h2.4v1.3c0.3-0.5,0.8-0.8,1.4-1.1s1.3-0.5,2.2-0.5c1.3,0,2.3,0.4,3,1.1s1,1.9,1,3.3v7.2h-2.5v-7
			c0-0.8-0.2-1.4-0.5-1.8c-0.3-0.4-1-0.6-1.8-0.6c-0.5,0-1.1,0.1-1.5,0.3c-0.5,0.2-0.8,0.5-1.1,0.8v8.2h-2.5V20.2z"/>
		<path class="st0" d="M31.2,16.5h-1.3c-0.6,0-1,0.2-1.2,0.5c-0.2,0.4-0.3,0.8-0.3,1.4v1.8h3.1v2.2h-3.1v9.2h-2.5v-9.2H24v-1.9
			l1.9-0.2v-1.8c0-1.3,0.3-2.3,0.9-3c0.6-0.7,1.6-1.1,3-1.1h1.5V16.5z"/>
		<path class="st0" d="M38,19.9c0.9,0,1.7,0.2,2.3,0.5s1.2,0.7,1.6,1.2c0.4,0.5,0.7,1.2,1,1.9c0.2,0.7,0.3,1.5,0.3,2.4
			c0,0.9-0.1,1.7-0.3,2.4c-0.2,0.7-0.5,1.4-1,1.9s-1,1-1.6,1.2c-0.7,0.3-1.5,0.5-2.4,0.5c-0.9,0-1.6-0.2-2.3-0.5s-1.2-0.7-1.6-1.2
			s-0.8-1.2-1-1.9c-0.2-0.7-0.3-1.5-0.3-2.4c0-0.9,0.1-1.7,0.3-2.4c0.2-0.7,0.5-1.4,1-1.9c0.4-0.5,1-1,1.7-1.2
			C36.3,20.1,37.1,19.9,38,19.9z M37.9,29.6c1,0,1.6-0.3,2.1-1c0.4-0.7,0.7-1.6,0.7-2.7c0-1.2-0.2-2.1-0.7-2.7s-1.1-1-2.1-1
			c-0.9,0-1.6,0.3-2,1s-0.6,1.5-0.6,2.7c0,1.2,0.2,2.1,0.6,2.8C36.3,29.3,37,29.6,37.9,29.6z"/>
		<path class="st0" d="M48.2,22c0.1-0.3,0.3-0.5,0.5-0.8c0.2-0.3,0.4-0.5,0.7-0.7c0.2-0.2,0.5-0.3,0.8-0.5c0.3-0.1,0.7-0.2,1.1-0.2
			c0.5,0,1,0.1,1.3,0.2l-0.2,2.7c-0.2-0.1-0.5-0.1-0.8-0.2s-0.6,0-0.9,0c-0.6,0-1.1,0.2-1.5,0.5c-0.4,0.3-0.7,0.7-1,1.3v7.3h-2.5
			V20.2h2.4L48.2,22L48.2,22z"/>
		<path class="st0" d="M54.5,20.2h2.4v1.3c0.3-0.4,0.8-0.8,1.3-1.1c0.5-0.3,1.2-0.5,2-0.5c0.9,0,1.7,0.2,2.2,0.5s1,0.7,1.4,1.3
			c0.4-0.5,0.9-0.9,1.6-1.2c0.7-0.3,1.5-0.5,2.4-0.5c1.4,0,2.5,0.4,3.1,1.1c0.6,0.7,1,1.8,1,3.2v7.4h-2.5v-7.2
			c0-0.7-0.2-1.2-0.5-1.6c-0.3-0.4-0.9-0.5-1.7-0.5c-0.6,0-1.1,0.1-1.5,0.3c-0.4,0.2-0.8,0.5-1.1,0.8v8.2h-2.5v-8.1
			c-0.2-0.4-0.5-0.7-0.9-0.9c-0.4-0.2-0.9-0.3-1.5-0.3c-0.6,0-1.1,0.1-1.5,0.3c-0.4,0.2-0.8,0.5-1.1,0.8v8.2h-2.5V20.2z"/>
		<path class="st0" d="M81.2,31.6v-1.4c-0.4,0.4-0.9,0.8-1.5,1.1c-0.6,0.3-1.4,0.5-2.3,0.5c-1.1,0-1.9-0.3-2.5-0.9
			c-0.6-0.6-0.9-1.4-0.9-2.4c0-0.6,0.1-1.1,0.4-1.6s0.6-0.8,1.1-1.1c0.5-0.3,1-0.5,1.7-0.7c0.7-0.2,1.4-0.3,2.2-0.3l1.6-0.2v-0.9
			c0-0.6-0.1-1-0.4-1.3c-0.3-0.3-0.9-0.5-1.7-0.5c-0.7,0-1.2,0.1-1.6,0.3c-0.3,0.2-0.5,0.5-0.5,0.9v0.6h-2.2c0-0.1,0-0.3,0-0.4
			c0-0.1,0-0.3,0-0.4c0-0.9,0.4-1.6,1.2-2.2s1.9-0.8,3.3-0.8c1.4,0,2.5,0.3,3.3,0.9c0.8,0.6,1.2,1.6,1.2,2.9v7.8H81.2z M76.6,28.4
			c0,1,0.6,1.5,1.7,1.5c0.5,0,1.1-0.1,1.5-0.3c0.5-0.2,0.9-0.5,1.2-0.8v-2.5l-1.6,0.2c-0.9,0.1-1.6,0.3-2.1,0.6
			C76.9,27.4,76.6,27.8,76.6,28.4z"/>
		<path class="st0" d="M90,28c0,1,0.5,1.5,1.4,1.5c0.2,0,0.5,0,0.7-0.1c0.3-0.1,0.5-0.1,0.7-0.2l0.1,2.2c-0.3,0.1-0.6,0.2-1.1,0.3
			c-0.4,0.1-0.9,0.1-1.3,0.1c-1.1,0-1.9-0.3-2.4-1c-0.5-0.6-0.7-1.5-0.7-2.5v-6h-2.1v-1.9l2.1-0.2v-2.8l2.5-0.4v3.2h2.8v2.2H90V28z"
			/>
		<path class="st0" d="M96.4,17.7c-0.5,0-0.9-0.1-1.2-0.4c-0.3-0.2-0.5-0.6-0.5-1.2c0-0.5,0.2-1,0.5-1.2c0.3-0.3,0.7-0.4,1.2-0.4
			c0.4,0,0.8,0.1,1.1,0.4c0.3,0.3,0.5,0.7,0.5,1.2c0,0.6-0.2,1-0.5,1.2C97.1,17.6,96.8,17.7,96.4,17.7z M95.1,20.2h2.5v11.4h-2.5
			V20.2z"/>
		<path class="st0" d="M105.5,19.9c0.9,0,1.7,0.2,2.3,0.5s1.2,0.7,1.6,1.2c0.4,0.5,0.7,1.2,1,1.9c0.2,0.7,0.3,1.5,0.3,2.4
			c0,0.9-0.1,1.7-0.3,2.4c-0.2,0.7-0.5,1.4-1,1.9s-1,1-1.6,1.2c-0.7,0.3-1.5,0.5-2.4,0.5c-0.9,0-1.6-0.2-2.3-0.5s-1.2-0.7-1.6-1.2
			s-0.8-1.2-1-1.9c-0.2-0.7-0.3-1.5-0.3-2.4c0-0.9,0.1-1.7,0.3-2.4c0.2-0.7,0.5-1.4,1-1.9c0.4-0.5,1-1,1.7-1.2
			C103.8,20.1,104.5,19.9,105.5,19.9z M105.4,29.6c1,0,1.6-0.3,2.1-1c0.4-0.7,0.7-1.6,0.7-2.7c0-1.2-0.2-2.1-0.7-2.7s-1.1-1-2.1-1
			c-0.9,0-1.6,0.3-2,1s-0.6,1.5-0.6,2.7c0,1.2,0.2,2.1,0.6,2.8C103.8,29.3,104.5,29.6,105.4,29.6z"/>
		<path class="st0" d="M113.2,20.2h2.4v1.3c0.3-0.5,0.8-0.8,1.4-1.1s1.3-0.5,2.2-0.5c1.3,0,2.3,0.4,3,1.1s1,1.9,1,3.3v7.2h-2.5v-7
			c0-0.8-0.2-1.4-0.5-1.8c-0.3-0.4-1-0.6-1.8-0.6c-0.5,0-1.1,0.1-1.5,0.3c-0.5,0.2-0.8,0.5-1.1,0.8v8.2h-2.5V20.2z"/>
		<path class="st0" d="M134.3,25.2v6.4h-2.7V14.7h5.7c2,0,3.4,0.5,4.4,1.4c1,0.9,1.5,2.2,1.5,3.9c0,1.7-0.5,2.9-1.5,3.9
			c-1,0.9-2.5,1.4-4.4,1.4H134.3z M134.3,22.9h2.8c1.2,0,2.1-0.3,2.5-0.8c0.5-0.6,0.7-1.3,0.7-2.2c0-0.9-0.2-1.6-0.7-2.2
			c-0.5-0.6-1.3-0.8-2.5-0.8h-2.8V22.9z"/>
		<path class="st0" d="M147.9,14.3v13.8c0,0.4,0.1,0.8,0.2,0.9c0.2,0.2,0.4,0.3,0.8,0.3h0.6v2.3h-1.3c-0.5,0-1-0.1-1.3-0.2
			s-0.6-0.4-0.9-0.7s-0.4-0.6-0.5-1c-0.1-0.4-0.1-0.8-0.1-1.3V14.3H147.9z"/>
		<path class="st0" d="M158.1,31.6v-1.4c-0.4,0.4-0.9,0.8-1.5,1.1c-0.6,0.3-1.4,0.5-2.3,0.5c-1.1,0-1.9-0.3-2.5-0.9
			c-0.6-0.6-0.9-1.4-0.9-2.4c0-0.6,0.1-1.1,0.4-1.6s0.6-0.8,1.1-1.1c0.5-0.3,1-0.5,1.7-0.7c0.7-0.2,1.4-0.3,2.2-0.3l1.6-0.2v-0.9
			c0-0.6-0.1-1-0.4-1.3c-0.3-0.3-0.9-0.5-1.7-0.5c-0.7,0-1.2,0.1-1.6,0.3c-0.3,0.2-0.5,0.5-0.5,0.9v0.6h-2.2c0-0.1,0-0.3,0-0.4
			c0-0.1,0-0.3,0-0.4c0-0.9,0.4-1.6,1.2-2.2s1.9-0.8,3.3-0.8c1.4,0,2.5,0.3,3.3,0.9c0.8,0.6,1.2,1.6,1.2,2.9v7.8H158.1z M153.5,28.4
			c0,1,0.6,1.5,1.7,1.5c0.5,0,1.1-0.1,1.5-0.3c0.5-0.2,0.9-0.5,1.2-0.8v-2.5l-1.6,0.2c-0.9,0.1-1.6,0.3-2.1,0.6
			C153.8,27.4,153.5,27.8,153.5,28.4z"/>
		<path class="st0" d="M166.9,28c0,1,0.5,1.5,1.4,1.5c0.2,0,0.5,0,0.7-0.1c0.3-0.1,0.5-0.1,0.7-0.2l0.1,2.2
			c-0.3,0.1-0.6,0.2-1.1,0.3c-0.4,0.1-0.9,0.1-1.3,0.1c-1.1,0-1.9-0.3-2.4-1c-0.5-0.6-0.7-1.5-0.7-2.5v-6h-2.1v-1.9l2.1-0.2v-2.8
			l2.5-0.4v3.2h2.8v2.2h-2.8V28z"/>
		<path class="st0" d="M178.2,16.5h-1.3c-0.6,0-1,0.2-1.2,0.5c-0.2,0.4-0.3,0.8-0.3,1.4v1.8h3.1v2.2h-3.1v9.2h-2.5v-9.2H171v-1.9
			l1.9-0.2v-1.8c0-1.3,0.3-2.3,0.9-3c0.6-0.7,1.6-1.1,3-1.1h1.5V16.5z"/>
		<path class="st0" d="M185,19.9c0.9,0,1.7,0.2,2.3,0.5s1.2,0.7,1.6,1.2c0.4,0.5,0.7,1.2,1,1.9c0.2,0.7,0.3,1.5,0.3,2.4
			c0,0.9-0.1,1.7-0.3,2.4c-0.2,0.7-0.5,1.4-1,1.9s-1,1-1.6,1.2c-0.7,0.3-1.5,0.5-2.4,0.5c-0.9,0-1.6-0.2-2.3-0.5s-1.2-0.7-1.6-1.2
			s-0.8-1.2-1-1.9c-0.2-0.7-0.3-1.5-0.3-2.4c0-0.9,0.1-1.7,0.3-2.4c0.2-0.7,0.5-1.4,1-1.9c0.4-0.5,1-1,1.7-1.2
			C183.3,20.1,184.1,19.9,185,19.9z M184.9,29.6c1,0,1.6-0.3,2.1-1c0.4-0.7,0.7-1.6,0.7-2.7c0-1.2-0.2-2.1-0.7-2.7s-1.1-1-2.1-1
			c-0.9,0-1.6,0.3-2,1s-0.6,1.5-0.6,2.7c0,1.2,0.2,2.1,0.6,2.8C183.3,29.3,184,29.6,184.9,29.6z"/>
		<path class="st0" d="M195.2,22c0.1-0.3,0.3-0.5,0.5-0.8c0.2-0.3,0.4-0.5,0.7-0.7c0.2-0.2,0.5-0.3,0.8-0.5c0.3-0.1,0.7-0.2,1.1-0.2
			c0.5,0,1,0.1,1.3,0.2l-0.2,2.7c-0.2-0.1-0.5-0.1-0.8-0.2s-0.6,0-0.9,0c-0.6,0-1.1,0.2-1.5,0.5c-0.4,0.3-0.7,0.7-1,1.3v7.3h-2.5
			V20.2h2.4L195.2,22L195.2,22z"/>
		<path class="st0" d="M201.5,20.2h2.4v1.3c0.3-0.4,0.8-0.8,1.3-1.1c0.5-0.3,1.2-0.5,2-0.5c0.9,0,1.7,0.2,2.2,0.5s1,0.7,1.4,1.3
			c0.4-0.5,0.9-0.9,1.6-1.2c0.7-0.3,1.5-0.5,2.4-0.5c1.4,0,2.5,0.4,3.1,1.1c0.6,0.7,1,1.8,1,3.2v7.4h-2.5v-7.2
			c0-0.7-0.2-1.2-0.5-1.6c-0.3-0.4-0.9-0.5-1.7-0.5c-0.6,0-1.1,0.1-1.5,0.3c-0.4,0.2-0.8,0.5-1.1,0.8v8.2h-2.5v-8.1
			c-0.2-0.4-0.5-0.7-0.9-0.9c-0.4-0.2-0.9-0.3-1.5-0.3c-0.6,0-1.1,0.1-1.5,0.3c-0.4,0.2-0.8,0.5-1.1,0.8v8.2h-2.5V20.2z"/>
		<path class="st0" d="M23.7,45.9c0.9,0,1.7,0.2,2.3,0.5s1.2,0.7,1.6,1.2c0.4,0.5,0.7,1.2,1,1.9c0.2,0.7,0.3,1.5,0.3,2.4
			c0,0.9-0.1,1.7-0.3,2.4c-0.2,0.7-0.5,1.4-1,1.9s-1,1-1.6,1.2c-0.7,0.3-1.5,0.5-2.4,0.5c-0.9,0-1.6-0.2-2.3-0.5s-1.2-0.7-1.6-1.2
			s-0.8-1.2-1-1.9c-0.2-0.7-0.3-1.5-0.3-2.4c0-0.9,0.1-1.7,0.3-2.4c0.2-0.7,0.5-1.4,1-1.9c0.4-0.5,1-1,1.7-1.2
			C22,46.1,22.8,45.9,23.7,45.9z M23.7,55.6c1,0,1.6-0.3,2.1-1c0.4-0.7,0.7-1.6,0.7-2.7c0-1.2-0.2-2.1-0.7-2.7s-1.1-1-2.1-1
			c-0.9,0-1.6,0.3-2,1S21,50.7,21,51.8c0,1.2,0.2,2.1,0.6,2.8C22.1,55.3,22.7,55.6,23.7,55.6z"/>
		<path class="st0" d="M37.6,42.5h-1.3c-0.6,0-1,0.2-1.2,0.5c-0.2,0.4-0.3,0.8-0.3,1.4v1.8h3.1v2.2h-3.1v9.2h-2.5v-9.2h-1.9v-1.9
			l1.9-0.2v-1.8c0-1.3,0.3-2.3,0.9-3c0.6-0.7,1.6-1.1,3-1.1h1.5V42.5z"/>
		<path class="st0" d="M55.8,55.3v2.2H45.2V40.7h10.6v2.2h-7.8v5h6.8v2.2h-6.8v5.2H55.8z"/>
		<path class="st0" d="M58.4,46.2h2.4v1.3c0.3-0.5,0.8-0.8,1.4-1.1s1.3-0.5,2.2-0.5c1.3,0,2.3,0.4,3,1.1s1,1.9,1,3.3v7.2h-2.5v-7
			c0-0.8-0.2-1.4-0.5-1.8c-0.3-0.4-1-0.6-1.8-0.6c-0.5,0-1.1,0.1-1.5,0.3c-0.5,0.2-0.8,0.5-1.1,0.8v8.2h-2.5V46.2z"/>
		<path class="st0" d="M76.2,55.7c0.5,0,1-0.1,1.5-0.3s1-0.5,1.5-0.9l1.2,1.7c-0.4,0.4-1,0.8-1.7,1.2c-0.7,0.3-1.6,0.5-2.5,0.5
			c-1,0-1.8-0.2-2.5-0.5s-1.3-0.7-1.7-1.2c-0.4-0.5-0.8-1.2-1-1.9c-0.2-0.7-0.3-1.5-0.3-2.4c0-0.8,0.1-1.6,0.3-2.3
			c0.2-0.7,0.5-1.4,1-1.9c0.4-0.5,1-1,1.6-1.3s1.4-0.5,2.3-0.5c0.8,0,1.5,0.1,2.1,0.4c0.6,0.3,1.1,0.6,1.5,1.1
			c0.4,0.5,0.7,1,0.8,1.6c0.2,0.6,0.3,1.2,0.3,1.8c0,0.3,0,0.6,0,1c0,0.4-0.1,0.7-0.1,0.9h-7.1c0,0.9,0.3,1.6,0.7,2.2
			C74.5,55.4,75.2,55.7,76.2,55.7z M78.3,50.8c0-0.1,0-0.2,0-0.2s0-0.1,0-0.2c0-0.8-0.2-1.4-0.6-1.8c-0.4-0.4-1-0.6-1.7-0.6
			c-0.9,0-1.6,0.3-2,0.8c-0.4,0.6-0.6,1.2-0.7,2H78.3z"/>
		<path class="st0" d="M85.5,48c0.1-0.3,0.3-0.5,0.5-0.8c0.2-0.3,0.4-0.5,0.7-0.7c0.2-0.2,0.5-0.3,0.8-0.5c0.3-0.1,0.7-0.2,1.1-0.2
			c0.5,0,1,0.1,1.3,0.2l-0.2,2.7c-0.2-0.1-0.5-0.1-0.8-0.2s-0.6,0-0.9,0c-0.6,0-1.1,0.2-1.5,0.5c-0.4,0.3-0.7,0.7-1,1.3v7.3h-2.5
			V46.2h2.4L85.5,48L85.5,48z"/>
		<path class="st0" d="M101.5,46.2v12.2c0,0.6-0.1,1.2-0.3,1.7c-0.2,0.5-0.6,1-1,1.4c-0.4,0.4-1,0.7-1.6,0.9
			c-0.6,0.2-1.3,0.3-2.1,0.3s-1.4-0.1-2-0.3s-1.1-0.4-1.4-0.8c-0.4-0.3-0.7-0.7-0.9-1.2s-0.3-0.9-0.3-1.4h2.2c0,0.4,0.2,0.7,0.6,1.1
			c0.4,0.3,1,0.5,1.8,0.5c0.8,0,1.4-0.2,1.8-0.6c0.4-0.4,0.6-0.9,0.6-1.6v-2c-0.3,0.4-0.8,0.7-1.3,1c-0.5,0.2-1.1,0.4-1.7,0.4
			c-1.6,0-2.8-0.5-3.6-1.6c-0.8-1.1-1.2-2.5-1.2-4.4c0-1.9,0.4-3.3,1.2-4.4c0.8-1,2-1.6,3.6-1.6c0.8,0,1.4,0.1,1.9,0.4
			c0.5,0.3,0.9,0.6,1.2,0.9v-1H101.5z M93.7,51.8c0,0.5,0,1,0.1,1.4s0.2,0.8,0.5,1.2c0.2,0.3,0.5,0.6,0.9,0.8
			c0.4,0.2,0.8,0.3,1.4,0.3c0.5,0,1-0.1,1.4-0.3s0.8-0.5,1-0.8v-5.1c-0.2-0.2-0.5-0.5-0.9-0.7c-0.4-0.2-0.9-0.4-1.6-0.4
			c-0.5,0-1,0.1-1.4,0.3s-0.6,0.4-0.9,0.8c-0.2,0.3-0.4,0.7-0.5,1.2S93.7,51.3,93.7,51.8z"/>
		<path class="st0" d="M109.2,54l2.9-7.9h2.7L108,63h-2.6l2.5-6l-4.8-10.8h2.9L109.2,54z"/>
		<path class="st0" d="M132.7,40.7h2.7v16.9h-2.8L124.8,45l0,12.6h-2.8V40.7h2.9l7.7,12.5V40.7z"/>
		<path class="st0" d="M143.4,55.7c0.5,0,1-0.1,1.5-0.3s1-0.5,1.5-0.9l1.2,1.7c-0.4,0.4-1,0.8-1.7,1.2c-0.7,0.3-1.6,0.5-2.5,0.5
			c-1,0-1.8-0.2-2.5-0.5s-1.3-0.7-1.7-1.2c-0.4-0.5-0.8-1.2-1-1.9c-0.2-0.7-0.3-1.5-0.3-2.4c0-0.8,0.1-1.6,0.3-2.3
			c0.2-0.7,0.5-1.4,1-1.9c0.4-0.5,1-1,1.6-1.3s1.4-0.5,2.3-0.5c0.8,0,1.5,0.1,2.1,0.4c0.6,0.3,1.1,0.6,1.5,1.1
			c0.4,0.5,0.7,1,0.8,1.6c0.2,0.6,0.3,1.2,0.3,1.8c0,0.3,0,0.6,0,1c0,0.4-0.1,0.7-0.1,0.9h-7.1c0,0.9,0.3,1.6,0.7,2.2
			C141.8,55.4,142.5,55.7,143.4,55.7z M145.5,50.8c0-0.1,0-0.2,0-0.2s0-0.1,0-0.2c0-0.8-0.2-1.4-0.6-1.8c-0.4-0.4-1-0.6-1.7-0.6
			c-0.9,0-1.6,0.3-2,0.8c-0.4,0.6-0.6,1.2-0.7,2H145.5z"/>
		<path class="st0" d="M153.9,54c0,1,0.5,1.5,1.4,1.5c0.2,0,0.5,0,0.7-0.1c0.3-0.1,0.5-0.1,0.7-0.2l0.1,2.2
			c-0.3,0.1-0.6,0.2-1.1,0.3c-0.4,0.1-0.9,0.1-1.3,0.1c-1.1,0-1.9-0.3-2.4-1c-0.5-0.6-0.7-1.5-0.7-2.5v-6h-2.1v-1.9l2.1-0.2v-2.8
			l2.5-0.4v3.2h2.8v2.2h-2.8V54z"/>
		<path class="st0" d="M168.2,46.2l2.7,8.7l2.6-8.7h2.6l-3.6,11.4h-2.8l-2.7-8.2l-2.7,8.2h-2.8l-3.6-11.4h2.6l2.6,8.7l2.7-8.7H168.2
			z"/>
		<path class="st0" d="M182.5,45.9c0.9,0,1.7,0.2,2.3,0.5s1.2,0.7,1.6,1.2c0.4,0.5,0.7,1.2,1,1.9c0.2,0.7,0.3,1.5,0.3,2.4
			c0,0.9-0.1,1.7-0.3,2.4c-0.2,0.7-0.5,1.4-1,1.9s-1,1-1.6,1.2c-0.7,0.3-1.5,0.5-2.4,0.5c-0.9,0-1.6-0.2-2.3-0.5s-1.2-0.7-1.6-1.2
			s-0.8-1.2-1-1.9c-0.2-0.7-0.3-1.5-0.3-2.4c0-0.9,0.1-1.7,0.3-2.4c0.2-0.7,0.5-1.4,1-1.9c0.4-0.5,1-1,1.7-1.2
			C180.8,46.1,181.6,45.9,182.5,45.9z M182.5,55.6c1,0,1.6-0.3,2.1-1c0.4-0.7,0.7-1.6,0.7-2.7c0-1.2-0.2-2.1-0.7-2.7s-1.1-1-2.1-1
			c-0.9,0-1.6,0.3-2,1s-0.6,1.5-0.6,2.7c0,1.2,0.2,2.1,0.6,2.8C180.9,55.3,181.6,55.6,182.5,55.6z"/>
		<path class="st0" d="M192.7,48c0.1-0.3,0.3-0.5,0.5-0.8c0.2-0.3,0.4-0.5,0.7-0.7c0.2-0.2,0.5-0.3,0.8-0.5c0.3-0.1,0.7-0.2,1.1-0.2
			c0.5,0,1,0.1,1.3,0.2l-0.2,2.7c-0.2-0.1-0.5-0.1-0.8-0.2s-0.6,0-0.9,0c-0.6,0-1.1,0.2-1.5,0.5c-0.4,0.3-0.7,0.7-1,1.3v7.3h-2.5
			V46.2h2.4L192.7,48L192.7,48z"/>
		<path class="st0" d="M206.5,57.6l-3.3-5.3l-1.6,1.6v3.7H199V40.3h2.5v10.5l4.8-4.7h3.1l-4.5,4.3l4.3,7.1H206.5z"/>
		<path class="st0" d="M217.7,49.1c-0.3-0.3-0.7-0.6-1.2-0.9s-1-0.3-1.6-0.3c-0.7,0-1.1,0.1-1.4,0.4c-0.3,0.3-0.4,0.6-0.4,1
			c0,0.3,0.1,0.6,0.3,0.8c0.2,0.2,0.5,0.4,0.9,0.5l1.9,0.5c1.1,0.2,1.9,0.6,2.4,1.2c0.5,0.5,0.8,1.2,0.8,2.1c0,0.5-0.1,0.9-0.3,1.3
			c-0.2,0.4-0.5,0.8-0.8,1.1s-0.9,0.6-1.5,0.8c-0.6,0.2-1.3,0.3-2.2,0.3c-0.6,0-1.1-0.1-1.6-0.2c-0.5-0.1-0.9-0.3-1.3-0.5
			c-0.4-0.2-0.7-0.4-1-0.6c-0.3-0.2-0.5-0.4-0.7-0.7l1.5-1.5c0.3,0.4,0.7,0.7,1.2,1c0.5,0.3,1.1,0.5,1.9,0.5c0.6,0,1.1-0.1,1.5-0.3
			c0.4-0.2,0.6-0.6,0.6-1.1c0-0.6-0.5-1.1-1.5-1.3l-2-0.5c-1-0.2-1.7-0.6-2.2-1.2s-0.7-1.2-0.7-2c0-0.4,0.1-0.8,0.2-1.3
			c0.2-0.4,0.4-0.8,0.8-1.1s0.8-0.6,1.4-0.8c0.6-0.2,1.3-0.3,2.1-0.3c1.1,0,2,0.2,2.6,0.5c0.7,0.3,1.2,0.7,1.5,1.1L217.7,49.1z"/>
	</g>
	<g>
		<g>
			<g>
				<path class="st0" d="M264.9,63.1c-5.9,0-11.9-0.6-17.8-1.7c-3.8-0.7-6.8-3.7-7.5-7.5c-2.2-11.8-2.2-23.8,0-35.5
					c0.7-3.8,3.7-6.8,7.5-7.5l0,0c11.8-2.2,23.8-2.2,35.5,0c3.8,0.7,6.8,3.7,7.5,7.5c2.2,11.8,2.2,23.8,0,35.5
					c-0.7,3.8-3.7,6.8-7.5,7.5C276.7,62.5,270.8,63.1,264.9,63.1z M247.5,12.8c-3,0.6-5.4,2.9-5.9,5.9c-2.2,11.5-2.2,23.3,0,34.8
					c0.6,3,2.9,5.4,5.9,5.9c11.5,2.2,23.3,2.2,34.8,0c3-0.6,5.4-2.9,5.9-5.9c2.2-11.5,2.2-23.3,0-34.8c-0.6-3-2.9-5.4-5.9-5.9
					C270.7,10.6,259,10.6,247.5,12.8L247.5,12.8z"/>
			</g>
		</g>
	</g>

		<rect x="248.6" y="32.3" transform="matrix(-1 -2.215307e-11 2.215307e-11 -1 529.7437 72.2124)" class="st0" width="32.6" height="7.7"/>
	<path class="st0" d="M279.2,45.7v3.7h-28.7v-3.7H279.2 M281.2,43.7h-32.6v7.7h32.6V43.7L281.2,43.7z"/>
	<path class="st0" d="M279.2,22.8v3.7h-28.7v-3.7H279.2 M281.2,20.9h-32.6v7.7h32.6V20.9L281.2,20.9z"/>
</g>
</svg>
