<?xml version="1.0" encoding="UTF-8"?>
<svg xmlns="http://www.w3.org/2000/svg" viewBox="0 0 48 48"><path d="M24 0c5.41 0 10.822.515 16.232 1.544a7.82 7.82 0 0 1 6.224 6.224c2.059 10.821 2.059 21.643 0 32.464a7.82 7.82 0 0 1-6.224 6.224A86.7 86.7 0 0 1 24 48a86.7 86.7 0 0 1-16.232-1.544 7.82 7.82 0 0 1-6.224-6.224c-2.059-10.821-2.059-21.643 0-32.464a7.82 7.82 0 0 1 6.224-6.224A86.68 86.68 0 0 1 24 0zm0 2A84.68 84.68 0 0 0 8.141 3.509 5.82 5.82 0 0 0 3.51 8.14c-2.012 10.575-2.012 21.143 0 31.718a5.82 5.82 0 0 0 4.63 4.632A84.7 84.7 0 0 0 24 46a84.7 84.7 0 0 0 15.859-1.509 5.82 5.82 0 0 0 4.632-4.632c2.012-10.575 2.012-21.143 0-31.718A5.82 5.82 0 0 0 39.86 3.51 84.68 84.68 0 0 0 24 2z" style="fill: rgb(24, 161, 176)"/>
  <rect x="8" y="7" width="32" height="8" fill-opacity="0.0" style="stroke-width:2;stroke:rgb(24, 161, 176);" />
  <rect x="8" y="19" width="32" height="8" style="fill:rgb(24, 161, 176);stroke-width:2;stroke:rgb(24, 161, 176);" />
  <rect x="8" y="31" width="32" height="8" fill-opacity="0.0" style="stroke-width:2;stroke:rgb(24, 161, 176);" />
</svg>
